<svg width="200" height="28" viewBox="0 0 200 28" fill="none" xmlns="http://www.w3.org/2000/svg">
<path d="M8.05596 25.5474H5.43309L5.26277 24.6107H2.77616L2.58881 25.5474H0L2.67397 12.0583H5.382L8.05596 25.5474ZM4.75183 22.073L4.01947 18.3771L3.28711 22.073H4.75183Z" fill="black"/>
<path d="M16.5418 14.6131H12.318V17.5255H14.4129V20.0802H12.318V25.5474H9.76325V12.0583H16.5418V14.6131Z" fill="black"/>
<path d="M25.5524 14.6131H23.185V25.5474H20.6302V14.6131H18.2458V12.0583H25.5524V14.6131Z" fill="black"/>
<path d="M35.2995 25.5474H27.2606V12.0583H35.2995V14.6131H29.8153V17.5255H32.3701V20.0802H29.8153V22.9927H35.2995V25.5474Z" fill="black"/>
<path d="M45.0632 17.9513L43.1897 19.8077L44.7907 25.5474H42.1337L40.6179 20.0802H39.562V25.5474H37.0072V12.0583H42.9342L45.0632 14.1703V17.9513ZM42.5084 16.7761V15.3284L41.759 14.6131H39.562V17.5255H41.759L42.5084 16.7761Z" fill="black"/>
<path d="M50.3665 5.87972C50.8067 5.5024 51.3884 5.10937 52.1116 4.70061C52.8662 4.26041 53.6837 3.85165 54.5641 3.47433C55.4445 3.09701 56.3564 2.78258 57.2996 2.53104C58.2744 2.2795 59.202 2.138 60.0824 2.10656C60.9942 2.07512 61.8274 2.18517 62.5821 2.43671C63.3681 2.68825 64.0127 3.12846 64.5158 3.75732C65.3019 4.63772 65.8993 5.62818 66.3081 6.72868C66.6539 7.67197 66.8426 8.7882 66.874 10.0774C66.9369 11.3351 66.6068 12.7186 65.8836 14.2278C65.3176 15.3598 64.563 16.3188 63.6197 17.1049C62.6764 17.8595 61.6859 18.4884 60.6483 18.9915C59.6107 19.4945 58.5731 19.8876 57.5355 20.1706C56.5293 20.4536 55.6803 20.6422 54.9886 20.7365C54.8314 21.5541 54.6899 22.3401 54.5641 23.0948C54.4383 23.8494 54.3283 24.5411 54.234 25.17C54.1711 25.7674 54.1082 26.2705 54.0453 26.6793C54.0139 27.1195 53.9981 27.4182 53.9981 27.5754C53.9981 27.6697 53.9824 27.7483 53.951 27.8112C53.8881 27.937 53.778 27.9999 53.6208 27.9999C52.8033 27.937 52.143 27.7641 51.6399 27.4811C51.1368 27.2295 50.7752 26.978 50.5551 26.7264C50.4922 26.6321 50.508 26.2233 50.6023 25.5002C50.7281 24.777 50.901 23.8808 51.1211 22.8118C51.3726 21.7113 51.6399 20.5322 51.9229 19.2744C52.2373 17.9853 52.536 16.759 52.819 15.5956C52.4417 15.7528 51.9386 15.91 51.3098 16.0673C50.7123 16.2245 50.2092 16.1773 49.8005 15.9258C49.5175 15.7371 49.2188 15.4856 48.9044 15.1711C48.5899 14.8567 48.2912 14.4951 48.0082 14.0863C47.7253 13.6776 47.458 13.2688 47.2064 12.8601C46.9549 12.4199 46.7505 12.0111 46.5933 11.6338C46.4361 11.2565 46.4518 10.8163 46.6405 10.3132C46.8606 9.77865 47.175 9.24412 47.5838 8.70959C47.9925 8.17506 48.4484 7.65625 48.9515 7.15316C49.4546 6.65007 49.9263 6.22559 50.3665 5.87972ZM61.7803 13.992C62.2519 13.3632 62.6764 12.6871 63.0537 11.9639C63.4625 11.2093 63.7612 10.4547 63.9498 9.70005C64.1699 8.94541 64.2643 8.22222 64.2328 7.53048C64.2014 6.83873 63.997 6.20987 63.6197 5.6439C63.4625 5.4238 63.1795 5.23514 62.7707 5.07792C62.3934 4.88926 61.8746 4.79494 61.2143 4.79494C60.554 4.79494 59.7365 4.93643 58.7617 5.21942C57.8185 5.47096 56.718 5.89544 55.4602 6.49286C54.1711 7.12172 53.1334 7.81347 52.3474 8.5681C51.5613 9.32273 50.9796 10.0616 50.6023 10.7848C50.225 11.508 50.0206 12.1683 49.9891 12.7657C49.9577 13.3632 50.0835 13.8034 50.3665 14.0863C50.8067 14.5265 51.294 14.7624 51.8286 14.7938C52.3631 14.7938 52.7719 14.7624 53.0548 14.6995C53.3064 13.6933 53.5265 12.8129 53.7151 12.0583C53.9352 11.2722 54.0767 10.7377 54.1396 10.4547C54.2968 9.92015 54.3754 9.49567 54.3754 9.18124C54.3754 8.86681 54.344 8.63098 54.2811 8.47377C54.2497 8.44232 54.2497 8.39516 54.2811 8.33227C54.344 8.2065 54.4383 8.14362 54.5641 8.14362C55.193 8.14362 55.7432 8.25367 56.2149 8.47377C56.718 8.69387 57.0953 8.88253 57.3468 9.03974C57.4097 9.10263 57.4726 9.18124 57.5355 9.27557C57.6298 9.43278 57.6612 9.6686 57.6298 9.98303C57.5355 10.3289 57.4254 10.7534 57.2996 11.2565C57.1739 11.7596 57.0324 12.2469 56.8752 12.7186C56.718 13.2845 56.5607 13.8662 56.4035 14.4637C56.2149 15.0925 56.0262 15.7843 55.8375 16.5389C55.6803 17.2621 55.5231 18.0167 55.3659 18.8028C56.3406 18.394 57.4254 17.8123 58.6203 17.0577C59.8151 16.3031 60.8684 15.2812 61.7803 13.992Z" fill="#FE2C55"/>
<path d="M77.0187 12.7186C77.0502 12.75 77.0974 12.8129 77.1602 12.9072C77.2546 13.0016 77.2703 13.1588 77.2074 13.3789C77.176 13.3789 77.1602 13.3946 77.1602 13.426V13.4732C76.8458 14.2907 76.5785 15.0768 76.3584 15.8314C76.1698 16.5861 75.9968 17.2778 75.8396 17.9067C75.8082 18.0639 75.7296 18.1739 75.6038 18.2368C75.5409 18.2683 75.4938 18.2683 75.4623 18.2368C74.7391 18.1111 74.1732 17.9696 73.7644 17.8123C73.3871 17.6237 73.0884 17.4665 72.8683 17.3407C72.7111 17.2778 72.6324 17.152 72.6324 16.9634V16.6804L73.0569 15.124C72.3652 15.9415 71.752 16.8848 71.2175 17.9538C70.683 19.0229 70.2271 20.0605 69.8497 21.0667C69.4724 22.0729 69.1737 22.969 68.9536 23.7551C68.765 24.5411 68.6392 25.06 68.5763 25.3115V25.453C68.5763 25.5159 68.5606 25.563 68.5291 25.5945C68.4662 25.6574 68.4034 25.6888 68.3405 25.6888C68.1204 25.6259 67.7902 25.563 67.35 25.5002C66.9413 25.4058 66.4853 25.2329 65.9823 24.9813C65.8879 24.9499 65.8408 24.887 65.8408 24.7927V24.6984C65.7779 24.0066 65.7936 23.1734 65.8879 22.1986C65.9508 21.2239 66.0766 20.202 66.2652 19.1329C66.4539 18.0324 66.674 16.9162 66.9255 15.7843C67.1771 14.6209 67.4286 13.5204 67.6802 12.4828C67.7116 12.3255 67.6959 12.2155 67.633 12.1526C67.6016 12.0897 67.6016 11.9797 67.633 11.8224C67.6644 11.7281 67.7588 11.681 67.916 11.681H67.9632H68.1047H68.1518C68.1833 11.7124 68.2147 11.7281 68.2461 11.7281H68.2933C68.5763 11.8224 68.9536 11.9797 69.4253 12.1998C69.9283 12.3884 70.3685 12.6557 70.7459 13.0016L70.793 13.0487C70.8245 13.0487 70.8716 13.0959 70.9345 13.1902C70.9974 13.2531 71.0131 13.3632 70.9817 13.5204C70.9817 13.5833 70.966 13.6304 70.9345 13.6619V13.7562C70.8716 13.9449 70.8402 14.0549 70.8402 14.0863C70.683 14.7152 70.51 15.3598 70.3214 16.0201C70.1327 16.6804 69.9598 17.3564 69.8026 18.0482C70.5258 16.5703 71.2647 15.3283 72.0193 14.3222C72.7739 13.2845 73.3714 12.5142 73.8116 12.0111C73.843 12.0111 73.8587 11.9954 73.8587 11.9639C73.9531 11.9325 74.0474 11.8382 74.1417 11.681C74.2675 11.5552 74.4247 11.4923 74.6134 11.4923C74.7077 11.4923 74.7863 11.508 74.8492 11.5395C75.1636 11.6652 75.5095 11.8224 75.8868 12.0111C76.2956 12.1998 76.6572 12.4356 76.9716 12.7186H77.0187Z" fill="#FE2C55"/>
<path d="M77.6172 24.604C77.5229 24.5411 77.4443 24.4468 77.3814 24.321C77.35 24.1953 77.3028 24.0852 77.2399 23.9909C77.177 23.8651 77.1456 23.7393 77.1456 23.6136C76.8941 22.01 76.8941 20.5793 77.1456 19.3216C77.3971 18.0639 77.6487 17.1206 77.9002 16.4917C78.1518 15.9572 78.3719 15.5327 78.5605 15.2183C78.7806 14.9039 78.9536 14.668 79.0793 14.5108C79.1422 14.4794 79.1894 14.4479 79.2208 14.4165C79.2523 14.3851 79.2837 14.3536 79.3152 14.3222L79.4567 14.1807C79.4881 14.1492 79.551 14.1178 79.6453 14.0863C79.834 14.0235 80.0069 13.992 80.1641 13.992C80.8559 14.0549 81.3432 14.2436 81.6262 14.558C81.9407 14.841 82.145 15.1082 82.2394 15.3598V15.5484C82.1765 15.7371 82.0821 15.8786 81.9564 15.9729C81.6419 16.2245 81.3747 16.476 81.1546 16.7276C80.9659 16.9477 80.793 17.1835 80.6358 17.435L80.5886 17.4822C80.3056 18.0167 80.0855 18.5984 79.9283 19.2273C79.7711 19.8561 79.661 20.485 79.5981 21.1139C79.4724 22.0257 79.4409 22.8118 79.5038 23.4721C79.5981 24.1009 79.7711 24.4311 80.0226 24.4625C80.2113 24.494 80.4471 24.4625 80.7301 24.3682C81.0445 24.2424 81.3747 24.0381 81.7206 23.7551C82.0664 23.4721 82.4123 23.1105 82.7582 22.6703C83.1355 22.1986 83.4656 21.6327 83.7486 20.9724C83.8115 20.8152 83.8744 20.6579 83.9373 20.5007C84.0002 20.3121 84.0631 20.1234 84.1259 19.9347C84.5661 18.2997 84.7391 17.0577 84.6448 16.2087C84.5504 15.3598 84.4718 14.9039 84.4089 14.841C84.2832 14.4322 84.0788 14.0549 83.7958 13.709C83.5128 13.3632 83.0726 13.1431 82.4752 13.0487C82.4437 13.1116 82.3809 13.1588 82.2865 13.1902C82.2236 13.2217 82.145 13.2531 82.0507 13.2845C81.9564 13.316 81.8778 13.3003 81.8149 13.2374C81.6577 13.1745 81.5948 12.9701 81.6262 12.6242C81.6891 12.2469 81.8935 11.8853 82.2394 11.5395C82.6796 11.0993 83.1984 10.8477 83.7958 10.7848C84.3932 10.7219 85.0221 10.8792 85.6824 11.2565C85.8396 11.3822 86.044 11.5709 86.2955 11.8224C86.5471 12.0425 86.7829 12.357 87.003 12.7657C87.2231 13.1745 87.396 13.6776 87.5218 14.275C87.679 14.8724 87.7419 15.5799 87.7104 16.3974C87.5532 17.8752 87.2545 19.1644 86.8143 20.2649C86.3741 21.334 85.8868 22.2458 85.3522 23.0004C84.8177 23.7551 84.2674 24.3682 83.7015 24.8399C83.1669 25.3115 82.711 25.6574 82.3337 25.8775C82.0193 26.0661 81.6891 26.1605 81.3432 26.1605H80.8716C79.9597 26.0032 79.2523 25.7674 78.7492 25.453C78.2461 25.1386 77.8688 24.8556 77.6172 24.604Z" fill="#FE2C55"/>
<path d="M108.335 19.5103C108.146 20.6737 107.832 21.6327 107.392 22.3873C106.983 23.1419 106.558 23.7394 106.118 24.1796C105.584 24.7141 105.033 25.1228 104.467 25.4058C103.43 25.1543 102.565 24.8241 101.873 24.4154C101.182 24.0066 100.773 23.4878 100.647 22.8589C100.427 21.8528 100.443 20.6422 100.694 19.2273C100.946 17.7809 101.245 16.4131 101.59 15.124C100.836 16.0044 100.176 17.0263 99.6095 18.1897C99.075 19.3216 98.6191 20.4221 98.2418 21.4912C97.8645 22.5288 97.5815 23.4249 97.3928 24.1796C97.2041 24.9342 97.0941 25.3587 97.0627 25.453C97.0627 25.6102 96.9998 25.6888 96.874 25.6888C96.6539 25.6259 96.3237 25.563 95.8835 25.5002C95.4433 25.4058 94.9874 25.2329 94.5158 24.9813C94.4214 24.9499 94.3743 24.887 94.3743 24.7927V24.6984C94.2799 24.0066 94.2642 23.1734 94.3271 22.1986C94.4214 21.1925 94.5629 20.1391 94.7516 19.0386C94.8459 18.3783 94.9717 17.718 95.1289 17.0577C95.2861 16.3974 95.4591 15.7528 95.6477 15.124C94.8931 16.0044 94.2328 17.0263 93.6668 18.1897C93.1323 19.3216 92.6764 20.4221 92.299 21.4912C91.9217 22.5288 91.6387 23.4249 91.4501 24.1796C91.2614 24.9342 91.1514 25.3587 91.1199 25.453C91.1199 25.6102 91.0413 25.6888 90.8841 25.6888C90.664 25.6259 90.3339 25.563 89.8936 25.5002C89.4849 25.4058 89.029 25.2329 88.5259 24.9813C88.4315 24.9499 88.3844 24.887 88.3844 24.7927V24.6984C88.3215 24.0066 88.3372 23.1734 88.4315 22.1986C88.4944 21.2239 88.6202 20.202 88.8089 19.1329C88.9975 18.0324 89.2176 16.9162 89.4692 15.7843C89.7207 14.6209 89.9723 13.5204 90.2238 12.4828C90.2552 12.3255 90.2395 12.2155 90.1766 12.1526C90.1452 12.0897 90.1452 11.9797 90.1766 11.8224C90.2081 11.7281 90.3024 11.681 90.4596 11.681H90.5068H90.6483H90.7426C90.7741 11.7124 90.8055 11.7281 90.8369 11.7281C91.1199 11.8224 91.4972 11.9797 91.9689 12.1998C92.472 12.3884 92.9122 12.6557 93.2895 13.0016L93.3367 13.0487C93.3681 13.0487 93.4153 13.0959 93.4781 13.1902C93.541 13.2531 93.5568 13.3632 93.5253 13.5204V13.6619C93.4939 13.6933 93.4781 13.7248 93.4781 13.7562C93.4467 13.8191 93.431 13.882 93.431 13.9449C93.431 13.9763 93.4153 14.0235 93.3838 14.0863C93.2266 14.7152 93.0537 15.3755 92.865 16.0673C92.6764 16.759 92.5034 17.4507 92.3462 18.1425C93.0694 16.6332 93.8083 15.3598 94.5629 14.3222C95.349 13.2845 95.9622 12.5142 96.4024 12.0111L96.4495 11.9639L96.7325 11.681C96.8583 11.5552 96.9998 11.4923 97.157 11.4923H97.2041H97.2513C97.2828 11.4923 97.2985 11.508 97.2985 11.5395C97.3299 11.5395 97.3771 11.5395 97.44 11.5395C97.7544 11.6652 98.1003 11.8224 98.4776 12.0111C98.8863 12.1998 99.2479 12.4356 99.5624 12.7186C99.6253 12.75 99.6881 12.8129 99.751 12.9072C99.8139 13.0016 99.8139 13.1588 99.751 13.3789V13.426V13.4732C99.4366 14.2907 99.1693 15.0768 98.9492 15.8314C98.7606 16.5861 98.5876 17.2935 98.4304 17.9538C99.1222 16.5075 99.8454 15.2812 100.6 14.275C101.355 13.2688 101.952 12.5142 102.392 12.0111C102.392 12.0111 102.408 11.9954 102.439 11.9639C102.534 11.8696 102.612 11.7753 102.675 11.681C102.801 11.5552 102.958 11.4923 103.147 11.4923C103.241 11.4923 103.336 11.508 103.43 11.5395C103.713 11.6652 104.043 11.8224 104.42 12.0111C104.829 12.1998 105.206 12.4356 105.552 12.7186C105.584 12.75 105.631 12.8129 105.694 12.9072C105.788 13.0016 105.804 13.1588 105.741 13.3789C105.741 13.3789 105.725 13.3946 105.694 13.426V13.4732C105.065 15.1397 104.609 16.649 104.326 18.001C104.074 19.3216 103.902 20.4378 103.807 21.3497C103.681 22.4502 103.666 23.4092 103.76 24.2267C104.578 23.8808 105.206 23.362 105.647 22.6703C106.118 21.9785 106.48 21.2868 106.731 20.595C107.014 19.7775 107.187 18.9443 107.25 18.0953C107.502 18.2525 107.69 18.4098 107.816 18.567C107.973 18.7242 108.083 18.8814 108.146 19.0386C108.241 19.1958 108.304 19.3531 108.335 19.5103Z" fill="#FE2C55"/>
<g clip-path="url(#clip0_2210_509)">
<path d="M82.847 0H83.2114C83.2289 0.014766 83.2478 0.0278261 83.2679 0.0389984C83.6075 0.185962 83.789 0.432225 83.7755 0.756123C83.7609 1.10494 83.5864 1.34578 83.2442 1.4505C83.1349 1.48408 83.1465 1.54799 83.1651 1.63105C83.2697 2.10046 83.3561 2.57421 83.4782 3.0393C83.6418 3.66146 83.8218 4.28181 84.1858 4.82706C84.6053 5.45608 85.1231 5.55899 85.7528 5.14193C86.2918 4.78661 86.661 4.2782 86.9966 3.74631C87.2152 3.40219 87.4047 3.04219 87.6041 2.69518C87.2462 2.39872 87.1547 2.10624 87.3049 1.8069C87.3705 1.67318 87.4814 1.56654 87.6183 1.50557C87.7551 1.44459 87.9093 1.43316 88.0538 1.47325C88.1963 1.50881 88.322 1.59237 88.4092 1.70962C88.4964 1.82688 88.5398 1.97053 88.5319 2.11599C88.5224 2.48033 88.3231 2.64138 87.7196 2.75873C87.6431 3.12668 87.5501 3.50077 87.4896 3.87811C87.4033 4.41975 87.3617 4.96716 87.5162 5.50591C87.6901 6.11218 88.1572 6.34544 88.7214 6.08979C89.4046 5.77997 89.8638 5.21812 90.3171 4.66095C90.2751 4.60775 90.2358 4.55243 90.1994 4.49521C90.1419 4.39275 90.1233 4.2733 90.147 4.15844C90.1706 4.04357 90.235 3.94088 90.3284 3.86892C90.4218 3.79696 90.5381 3.76048 90.6562 3.76608C90.7744 3.77167 90.8867 3.81896 90.9727 3.89942C91.0252 3.95639 91.0739 4.0167 91.1185 4.07996V4.44105C90.9939 4.63171 90.8364 4.78589 90.5897 4.74617C90.4585 4.72487 90.3886 4.76206 90.3146 4.8545C89.3941 6.01938 88.6536 7.28175 88.1937 8.69614C88.1208 8.91676 88.0603 9.141 87.9951 9.36018C87.7764 9.27099 87.5764 9.17314 87.3654 9.10417C86.4656 8.80916 85.5338 8.66653 84.5929 8.63475C83.5572 8.59865 82.5157 8.58926 81.4826 8.63475C80.3121 8.68856 79.1504 8.83985 78.0608 9.36452C78.0418 9.30133 78.0214 9.2403 78.005 9.17856C77.5677 7.55365 76.7532 6.12229 75.7033 4.81406C75.6709 4.77398 75.5999 4.7274 75.5576 4.73642C75.266 4.80034 75.0838 4.66095 74.9381 4.43852V4.07743C74.9596 4.04999 74.9822 4.02363 75.0022 3.9951C75.1746 3.75064 75.4854 3.69359 75.7201 3.86367C75.942 4.02471 75.9803 4.3367 75.8065 4.5696C75.7857 4.5974 75.7631 4.62376 75.715 4.68334C76.043 5.01807 76.3578 5.36075 76.6989 5.67417C76.8798 5.83448 77.0829 5.96825 77.302 6.07137C77.8603 6.34327 78.3224 6.14034 78.5232 5.55574C78.5487 5.48187 78.5684 5.40618 78.5822 5.32933C78.7378 4.43997 78.5334 3.58815 78.3202 2.74104C77.8184 2.70168 77.5761 2.52835 77.5276 2.18532C77.5051 2.03976 77.5337 1.89095 77.6086 1.76378C77.6835 1.63661 77.8003 1.53879 77.9393 1.48669C78.0783 1.43459 78.2311 1.43137 78.3722 1.47756C78.5134 1.52375 78.6342 1.61656 78.7145 1.74046C78.9069 2.03908 78.8362 2.32073 78.4678 2.6941C78.8643 3.48163 79.2968 4.24895 79.9499 4.85919C80.1502 5.04211 80.3788 5.19206 80.627 5.30333C81.0249 5.48388 81.3966 5.39794 81.6783 5.06574C81.8493 4.86309 81.9933 4.63941 82.1065 4.40025C82.5194 3.52677 82.6976 2.58577 82.8922 1.6491C82.9188 1.52019 82.8863 1.47758 82.7628 1.43245C82.4603 1.32412 82.3011 1.0923 82.2825 0.773456C82.2746 0.628264 82.3107 0.484045 82.3862 0.359385C82.4618 0.234724 82.5733 0.135334 82.7063 0.0740242C82.7559 0.0523588 82.8003 0.0241931 82.847 0Z" fill="black"/>
</g>
<path d="M117.91 23.4355L115.781 25.5474H111.966L109.854 23.4355V14.1703L111.966 12.0583H115.781L117.91 14.1703V16.3163H115.355V15.3455L114.606 14.6131H113.141L112.409 15.3455V22.2603L113.141 22.9927H114.606L115.355 22.2603V21.2895H117.91V23.4355Z" fill="black"/>
<path d="M127.656 25.5474H119.617V12.0583H127.656V14.6131H122.172V17.5255H124.727V20.0802H122.172V22.9927H127.656V25.5474Z" fill="black"/>
<path d="M137.352 25.5474H134.848L131.919 18.9221V25.5474H129.364V12.0583H131.885L134.797 18.6666V12.0583H137.352V25.5474Z" fill="black"/>
<path d="M146.367 14.6131H144V25.5474H141.445V14.6131H139.061V12.0583H146.367V14.6131Z" fill="black"/>
<path d="M156.131 17.9513L154.258 19.8077L155.859 25.5474H153.202L151.686 20.0802H150.63V25.5474H148.075V12.0583H154.002L156.131 14.1703V17.9513ZM153.577 16.7761V15.3284L152.827 14.6131H150.63V17.5255H152.827L153.577 16.7761Z" fill="black"/>
<path d="M165.895 25.5474H163.272L163.101 24.6107H160.615L160.427 25.5474H157.839L160.513 12.0583H163.221L165.895 25.5474ZM162.59 22.073L161.858 18.3771L161.126 22.073H162.59Z" fill="black"/>
<path d="M174.04 25.5474H167.602V12.0583H170.157V22.9927H174.04V25.5474Z" fill="black"/>
<path d="M176.959 20.3527V22.1411H175.17V20.3527H176.959Z" fill="#FE2C55"/>
<path d="M184.386 20.6627L182.896 22.1411H180.225L178.747 20.6627V14.1771L180.225 12.6987H182.896L184.386 14.1771V15.6793H182.598V14.9997L182.073 14.4871H181.048L180.535 14.9997V19.8401L181.048 20.3527H182.073L182.598 19.8401V19.1605H184.386V20.6627Z" fill="#FE2C55"/>
<path d="M191.805 20.6627L190.314 22.1411H187.656L186.177 20.6627V14.1771L187.656 12.6987H190.314L191.805 14.1771V20.6627ZM190.016 19.8401V14.9878L189.504 14.4871H188.478L187.954 14.9997V19.8401L188.478 20.3527H189.504L190.016 19.8401Z" fill="#FE2C55"/>
<path d="M199.188 22.1411H197.399V18.2783L196.386 21.2469L195.384 18.2783V22.1411H193.596V12.6987H195.384L196.386 15.6673L197.399 12.6987H199.188V22.1411Z" fill="#FE2C55"/>
<defs>
<clipPath id="clip0_2210_509">
<rect width="16.18" height="9.3674" fill="white" transform="translate(74.9392)"/>
</clipPath>
</defs>
</svg>
