<svg width="18" height="18" viewBox="0 0 18 18" fill="none" xmlns="http://www.w3.org/2000/svg">
<path d="M17.9999 1V14C17.9999 14.2652 17.8946 14.5196 17.7071 14.7071C17.5195 14.8946 17.2652 15 16.9999 15C16.7347 15 16.4804 14.8946 16.2928 14.7071C16.1053 14.5196 15.9999 14.2652 15.9999 14V3.41375L1.70745 17.7075C1.51981 17.8951 1.26531 18.0006 0.999946 18.0006C0.734582 18.0006 0.480086 17.8951 0.292446 17.7075C0.104805 17.5199 -0.000610352 17.2654 -0.000610352 17C-0.000610352 16.7346 0.104805 16.4801 0.292446 16.2925L14.5862 2H3.99995C3.73473 2 3.48038 1.89464 3.29284 1.70711C3.1053 1.51957 2.99995 1.26522 2.99995 1C2.99995 0.734784 3.1053 0.48043 3.29284 0.292893C3.48038 0.105357 3.73473 0 3.99995 0H16.9999C17.2652 0 17.5195 0.105357 17.7071 0.292893C17.8946 0.48043 17.9999 0.734784 17.9999 1Z" fill="#343330"/>
</svg>
