<svg xmlns="http://www.w3.org/2000/svg" width="145" height="40" fill="none"><path fill="#fff" d="M26.333 13.278a6.264 6.264 0 0 0-2.61-2.39c-1.075-.555-2.353-.832-3.834-.832-2.74 0-4.907.888-6.5 2.666-1.556 1.778-2.333 4.167-2.333 7.167 0 3.37.833 5.944 2.5 7.722 1.703 1.74 4.166 2.611 7.388 2.611 3.815 0 6.538-1.722 8.167-5.166H18.167v-7.834H38.5v10.556c-.852 2.074-2.111 4.018-3.778 5.833-1.63 1.815-3.704 3.315-6.222 4.5-2.518 1.148-5.389 1.722-8.611 1.722-3.926 0-7.407-.833-10.445-2.5-3-1.703-5.333-4.055-7-7.055C.814 27.24 0 23.778 0 19.888c0-3.851.815-7.277 2.444-10.277 1.667-3.037 4-5.389 7-7.055C12.444.852 15.907 0 19.834 0c4.925 0 9 1.185 12.222 3.556 3.222 2.37 5.222 5.61 6 9.722H26.333Z"/><path fill="#fff" d="M60.441 33.167H46.553l-2.111 6.389H32.996L47.275.389H59.83l14.223 39.167h-11.5l-2.111-6.39Zm-2.722-8.334-4.222-12.666-4.167 12.666h8.39Z"/><path fill="#fff" d="M97.972 19.444c2.296.519 4.111 1.667 5.444 3.445 1.371 1.74 2.056 3.74 2.056 6 0 3.333-1.148 5.944-3.444 7.833-2.297 1.89-5.519 2.834-9.667 2.834H72.972V.389H91.75c4 0 7.13.889 9.389 2.667 2.296 1.777 3.444 4.277 3.444 7.5 0 2.296-.611 4.222-1.833 5.777-1.185 1.519-2.778 2.556-4.778 3.111Zm-14.111-3.5h5.5c2.74 0 4.111-1.13 4.111-3.388 0-2.334-1.37-3.5-4.111-3.5h-5.5v6.888Zm6.333 14.834c2.741 0 4.111-1.148 4.111-3.445 0-1.185-.37-2.092-1.11-2.722-.704-.63-1.723-.944-3.056-.944H83.86v7.11h6.333ZM116.503 9.111V15.5h12.5v8.278h-12.5v7.055h14.167v8.723h-25.055V.389h25.055V9.11h-14.167ZM138.242 40c-1.926 0-3.481-.519-4.667-1.556-1.148-1.074-1.722-2.425-1.722-4.055s.574-2.982 1.722-4.056c1.186-1.074 2.741-1.61 4.667-1.61 1.889 0 3.408.536 4.556 1.61 1.185 1.074 1.777 2.426 1.777 4.056 0 1.592-.592 2.926-1.777 4-1.148 1.074-2.667 1.611-4.556 1.611Z"/></svg>