<svg xmlns="http://www.w3.org/2000/svg" width="340" height="73"><path data-name="Path 14" d="M1.5 4h24.4v1.52h-4.4v52.96h4.4V60H1.5v-1.52h4.4V5.52H1.5Zm33.04 19.84-.72-1.12q7.44-4.88 7.44-9.76 0-2.56-2.16-2.88l-3.36 3.12a7.039 7.039 0 0 1-2.92-2.04 5.5 5.5 0 0 1-1.32-3.8 5.119 5.119 0 0 1 1.84-3.96 7 7 0 0 1 4.84-1.64 6.585 6.585 0 0 1 4.96 2.04 7.8 7.8 0 0 1 1.96 5.64q0 7.84-10.56 14.4Zm13.36-1.92h19.28v7.36q2.64-8.16 11.64-8.16t10.92 8.64q2.8-8.64 11.76-8.64 11.76 0 11.76 13.36v24.08h4.48V60H95.58v-1.44h2.8v-26q0-6.08-1.04-7.12a1.73 1.73 0 0 0-1.28-.48q-2.32 0-4.08 3.12A15.972 15.972 0 0 0 90.22 36v22.56h2.88V60H72.54v-1.44h2.8v-26q0-6.08-1.04-7.12a1.73 1.73 0 0 0-1.28-.48q-2.24 0-4.04 3.4a17.137 17.137 0 0 0-1.8 8.12v22.08h2.88V60H47.9v-1.44h4.4v-35.2h-4.4ZM163.74 59.2q3.92 0 5-1.44t1.08-4.88V37.36h-5.12V35.6h23.04v1.76h-3.12v22.56h-1.2a4.731 4.731 0 0 0-4.08-2 43.827 43.827 0 0 0-6.68 1.44 38.838 38.838 0 0 1-9.48 1.44q-13.04 0-20.2-7.04t-7.16-21.16q0-14.12 7.48-21.8t20.12-7.68a39.971 39.971 0 0 1 9.8 1.24 43.8 43.8 0 0 0 5.72 1.24 1.745 1.745 0 0 0 1.2-.36 4.818 4.818 0 0 0 .88-1.24h.88l.64 17.36h-1.44a57.19 57.19 0 0 0-7.88-12.2q-3.96-4.44-8.84-4.44-12.24 0-12.24 23.92v6.32q0 12 3 18.12t8.6 6.12Zm46.24-18h2.32v-6.16q0-7.6-.84-10.2a3.242 3.242 0 0 0-3.24-2.6 4.641 4.641 0 0 0-2.6.76 2.366 2.366 0 0 0-1.16 2.08 8.017 8.017 0 0 0 .48 2.68h2a11.366 11.366 0 0 1 .64 4.04 5.224 5.224 0 0 1-2 4.08 7.456 7.456 0 0 1-5.04 1.72q-6.88 0-6.88-6.64 0-9.84 16.72-9.84 9.52 0 13.16 3.24t3.64 11.88v16.24q0 4.16 2.32 4.16 2.72 0 3.2-8.24l1.2.08q-.32 7.04-2.64 9.68t-7.6 2.64q-9.6 0-11.04-5.92a8.616 8.616 0 0 1-3.12 4.48 10.665 10.665 0 0 1-6.08 1.44q-11.84 0-11.84-9.68 0-5.68 4.52-7.8t13.88-2.12Zm-3.2 9.84a19.784 19.784 0 0 0 .44 5.36 1.659 1.659 0 0 0 1.68 1.2q1.24 0 2.32-2.04a12.187 12.187 0 0 0 1.08-5.64v-7.44h-.56q-4.96 0-4.96 7.28Zm57.12-12.56q0-8.24-.8-11.08t-3.12-2.84q-2.32 0-4.16 2.88a14.627 14.627 0 0 0-1.84 7.92v14.88a11.408 11.408 0 0 0 1.4 5.84 4.4 4.4 0 0 0 4 2.4q2.6 0 3.56-3.52t.96-12.32ZM253.98 0v28q3.04-6.88 10.4-6.88 14.96 0 14.96 19.92 0 10.16-4.12 14.96t-12.36 4.8a12.819 12.819 0 0 1-6.36-1.28 6.63 6.63 0 0 1-3-4.24l-.56 4.72H234.7v-1.44h4.4V1.44h-4.4V0Zm48.8 60.8q-10.32 0-15.48-5.32t-5.16-14.8q0-9.48 5.8-14.52t14.76-5.04q18.16 0 17.44 18.24h-22.56v3.12q0 7.84 2 11.84t6.96 4q9.28 0 12.16-9.92l1.44.24a16.539 16.539 0 0 1-5.48 8.96q-3.96 3.2-11.88 3.2Zm-5.12-23.04h8.24v-3.92q0-6.48-.76-8.84a3 3 0 0 0-3.04-2.36 3.554 3.554 0 0 0-3.36 2.52q-1.08 2.52-1.08 8.68ZM332.7 60.8a6.37 6.37 0 0 1-5.16-2.04 7.437 7.437 0 0 1-1.72-4.96 7.087 7.087 0 0 1 1.8-4.92 6.482 6.482 0 0 1 5.08-2 7.621 7.621 0 0 1 5.2 1.68 6.341 6.341 0 0 1 1.92 5.04 7.414 7.414 0 0 1-1.8 5.28 6.947 6.947 0 0 1-5.32 1.92Z" fill="#404040"/><path data-name="Line 1" fill="none" stroke="#707070" stroke-dasharray="4" d="M0 72.5h340"/></svg>