<?xml version="1.0" encoding="UTF-8"?>
<svg id="LOGO_W" xmlns="http://www.w3.org/2000/svg" version="1.1" viewBox="0 0 185.2 35.4">
  <!-- Generator: Adobe Illustrator 29.5.1, SVG Export Plug-In . SVG Version: 2.1.0 Build 141)  -->
  <defs>
    <style>
      .st0 {
        fill: #f99c00;
      }

      .st1 {
        fill: #0092ff;
      }

      .st2 {
        fill: #93d81a;
      }
    </style>
  </defs>
  <g id="circles">
    <path id="Path_90495" class="st1" d="M24.4,26.9h0c-4.3,4.5-11.4,4.6-15.9.3-4.5-4.3-4.6-11.4-.3-15.9,2.7-2.9,6.8-4.1,10.7-3.2-.5-1.7-.4-3.5.5-5-1-.2-2-.3-3.1-.3C7.3,2.9,0,10.2,0,19.2c0,9,7.3,16.3,16.3,16.3,5,0,9.8-2.3,12.8-6.3-1.7-.3-3.4-1.1-4.7-2.2"/>
    <path id="Path_90497" class="st2" d="M30.9,9c-.2,0-.3,0-.5,0-.2.4-.4.8-.7,1.1-.2.2-.3.4-.5.6h0c-1,1-2.4,1.7-3.9,1.8,0,0,0,0,0,0-.2,0-.3,0-.5,0-.5,0-1,0-1.4-.2-3.7,4.2-3.4,10.6.8,14.4,0,0,.1.1.2.2h0c4.3,3.6,10.7,3.1,14.3-1.2,3.6-4.3,3.1-10.7-1.2-14.3-1.8-1.5-4.1-2.4-6.5-2.4M31.2,25.5h0c-.1,0-.2,0-.3,0-3.5,0-6.3-2.9-6.3-6.4,0-3.4,2.8-6.2,6.3-6.3.1,0,.2,0,.3,0,3.5.2,6.2,3.1,6,6.6-.2,3.3-2.8,5.9-6,6"/>
    <path id="Path_90498" class="st0" d="M18.8,8.2h0c.8,2.6,3.2,4.3,6,4.3.2,0,.3,0,.5,0,0,0,0,0,0,0,1.5-.1,2.8-.8,3.9-1.8h0c.2-.2.4-.4.5-.6.3-.3.5-.7.7-1.1,1.5-3.1.2-6.9-3-8.4-3-1.4-6.5-.3-8.1,2.5h0c-.9,1.5-1,3.4-.5,5M27.3,3.5c.8.7,1.3,1.7,1.3,2.8,0,.6-.2,1.2-.4,1.8-1,1.8-3.2,2.5-5.1,1.6-.8-.4-1.4-1.1-1.7-1.9-.1-.3-.2-.7-.2-1,0-.1,0-.3,0-.4,0-.2,0-.4,0-.6.3-2,2.3-3.4,4.3-3.1.7.1,1.4.4,1.9.9"/>
  </g>
  <path id="Integrate" d="M108.8,24c-1.7-1.7-2.5-4.1-2.5-6.5,0-2.4.8-4.8,2.5-6.5,1.6-1.7,3.8-2.6,6-2.6,2.3,0,4.5.9,6.1,2.5l-1.9,2.9c-.6-.6-1.3-1.1-2-1.4-.6-.3-1.3-.4-2-.4-1.3,0-2.6.5-3.5,1.5-1,1.1-1.5,2.5-1.4,4,0,1.5.4,2.9,1.4,4,.8,1,2,1.5,3.3,1.5,1.1,0,2.2-.2,3.2-.8v-3h-3.2v-2.6h6.9v7c-1.7,2-4.2,3-6.8,2.9-2.3,0-4.5-.9-6.1-2.6ZM172.6,26.3V8.8h11.8v3.5h-8.2v3.6h7.4v3.3h-7.4v3.6h8.4v3.5h-12.1ZM161.6,26.3v-14.2h-4.7v-3.4h13v3.4h-4.7v14.2h-3.7ZM154.1,26.3l-1.5-3.8h-6.9l-1.5,3.8h-3.9l7.1-17.6h3.5l7.1,17.6h-3.9ZM147.1,19.1h4.1l-2-5.1-2.1,5.1ZM134.7,26.3l-3.6-5.6h-2.5v5.6h-3.7V8.8h6.2c2.6,0,4.4.5,5.5,1.4,1.2,1.2,1.8,2.8,1.6,4.4,0,2.8-1,4.6-3.1,5.4l4.2,6.3h-4.5ZM128.6,17.3h2.7c.9.1,1.8-.1,2.6-.7.5-.6.7-1.3.7-2.1,0-.7-.2-1.4-.7-1.9-.8-.4-1.6-.6-2.5-.5h-2.7v5.2ZM91.9,26.3V8.8h11.8v3.5h-8.2v3.6h7.4v3.3h-7.4v3.6h8.4v3.5h-12.1ZM80.9,26.3v-14.2h-4.6v-3.4h13v3.4h-4.7v14.2h-3.7ZM69.9,26.3l-7.8-11v11h-3.7V8.8h3.4l8.1,11.3v-11.3h3.7v17.6h-3.7ZM50.7,26.3V8.8h3.7v17.6h-3.7Z"/>
</svg>