<?xml version="1.0" encoding="UTF-8"?>
<svg id="Layer_1" xmlns="http://www.w3.org/2000/svg" version="1.1" viewBox="0 0 164 14">
  <!-- Generator: Adobe Illustrator 29.5.1, SVG Export Plug-In . SVG Version: 2.1.0 Build 141)  -->
  <path d="M0,.3v13.4h2.8V4.7h0l5.6,9h2.9V.3h-2.8v9h0L2.9.3H0ZM17.4,8.5v5.2h2.9v-5.1L25.3.3h-3.3l-3.1,5.3L15.7.3h-3.3l4.9,8.2ZM35.3,4.8h2.8c0-.8-.3-1.5-.6-2.1s-.8-1.1-1.3-1.5c-.5-.4-1.1-.7-1.8-.9-.6-.2-1.3-.3-2.1-.3s-1.9.2-2.8.5c-.8.4-1.5.9-2.1,1.5-.6.6-1,1.4-1.3,2.2-.3.8-.4,1.8-.4,2.8s.1,1.9.4,2.7c.3.8.7,1.6,1.3,2.2.6.6,1.2,1.1,2.1,1.5.8.3,1.7.5,2.8.5s1.6-.1,2.3-.4c.7-.2,1.3-.6,1.8-1.1.5-.5.9-1,1.2-1.7s.5-1.4.6-2.3h-2.8c-.1.9-.4,1.6-.9,2.2-.5.5-1.2.8-2.1.8s-1.2-.1-1.7-.4c-.5-.3-.8-.6-1.1-1-.3-.4-.5-.9-.6-1.4-.1-.5-.2-1.1-.2-1.6s0-1.2.2-1.7c.1-.5.3-1,.6-1.5.3-.4.7-.8,1.1-1,.5-.3,1-.4,1.7-.4s.7,0,1,.2c.3.1.6.3.9.5.3.2.5.5.7.7.2.3.3.6.3.9Z"/>
  <path d="M40.4.3v13.4h1.7V3h0l7,10.7h1.9V.3h-1.7v10.9h0L42.3.3h-1.9ZM60.4,7.9h-5.6c0-.4.1-.7.2-1,.1-.3.3-.6.6-.9.2-.2.5-.4.8-.6.3-.1.7-.2,1.1-.2s.8,0,1.1.2c.3.1.6.3.9.6.2.2.4.5.6.9.1.3.2.7.3,1.1ZM62,10.6h-1.6c-.1.6-.4,1.1-.9,1.4-.4.3-1,.5-1.6.5s-1,0-1.4-.3c-.4-.2-.7-.4-1-.7-.2-.3-.4-.6-.5-1-.1-.4-.2-.8-.1-1.2h7.3c0-.6,0-1.2-.2-1.9-.1-.6-.4-1.2-.7-1.8-.3-.5-.8-1-1.4-1.3-.6-.4-1.3-.5-2.1-.5s-1.3.1-1.8.4c-.5.2-1,.6-1.4,1-.4.4-.7,1-.9,1.6-.2.6-.3,1.3-.3,2,0,.7.1,1.4.3,2,.2.6.5,1.2.9,1.6.4.4.9.8,1.4,1,.6.2,1.2.4,2,.4,1.1,0,2-.3,2.7-.8.7-.5,1.2-1.4,1.4-2.5ZM73.4,13.7l3.1-9.7h-1.6l-2.2,7.9h0l-2-7.9h-1.7l-1.9,7.9h0l-2.2-7.9h-1.8l3.1,9.7h1.7l1.9-7.7h0l2,7.7h1.7ZM83.8,8.2l5.1-7.9h-2l-3.9,6.4-4-6.4h-2.1l5.2,7.9v5.5h1.8v-5.5ZM94.8,7.9h-5.6c0-.4.1-.7.2-1,.1-.3.3-.6.6-.9.2-.2.5-.4.8-.6.3-.1.7-.2,1.1-.2s.8,0,1.1.2c.3.1.6.3.9.6.2.2.4.5.6.9.1.3.2.7.3,1.1ZM96.3,10.6h-1.6c-.1.6-.4,1.1-.9,1.4-.4.3-1,.5-1.6.5s-1,0-1.4-.3c-.4-.2-.7-.4-1-.7-.2-.3-.4-.6-.5-1-.1-.4-.2-.8-.1-1.2h7.3c0-.6,0-1.2-.2-1.9-.1-.6-.4-1.2-.7-1.8-.3-.5-.8-1-1.4-1.3-.6-.4-1.3-.5-2.1-.5s-1.3.1-1.8.4c-.5.2-1,.6-1.4,1-.4.4-.7,1-.9,1.6-.2.6-.3,1.3-.3,2,0,.7.1,1.4.3,2,.2.6.5,1.2.9,1.6s.9.8,1.4,1c.6.2,1.2.4,2,.4,1.1,0,2-.3,2.7-.8s1.2-1.4,1.4-2.5ZM106.7,13.7c-.3.2-.7.2-1.1.2s-.7-.1-1-.3c-.2-.2-.4-.6-.4-1.1-.4.5-.9.9-1.5,1.1-.6.2-1.2.3-1.9.3s-.9,0-1.3-.1c-.4,0-.7-.3-1-.5-.3-.2-.5-.5-.7-.8-.2-.3-.2-.8-.2-1.3s0-1,.3-1.3c.2-.3.4-.6.7-.8.3-.2.7-.4,1-.5.4-.1.8-.2,1.2-.3.4,0,.8-.1,1.2-.2.4,0,.7-.1,1-.2.3,0,.5-.2.7-.4.2-.2.3-.4.3-.7s0-.6-.2-.8c-.1-.2-.3-.4-.5-.5-.2-.1-.4-.2-.7-.2-.2,0-.5,0-.7,0-.7,0-1.2.1-1.7.4-.4.2-.7.7-.7,1.4h-1.6c0-.6.1-1.1.4-1.5.2-.4.5-.7.9-1,.4-.3.8-.4,1.3-.6.5-.1,1-.2,1.6-.2s.9,0,1.3,0c.4,0,.8.2,1.2.4.3.2.6.5.8.8s.3.8.3,1.4v5c0,.4,0,.6,0,.8,0,.2.2.3.4.3s.3,0,.5,0v1.2ZM104.1,8.7c-.2.1-.5.3-.8.3-.3,0-.7.1-1,.2-.3,0-.7,0-1.1.1-.4,0-.7.1-1,.3-.3.1-.5.3-.7.5-.2.2-.3.5-.3.9s0,.5.1.7c.1.2.2.3.4.4.2.1.4.2.6.2.2,0,.5,0,.7,0,.5,0,1,0,1.3-.2.4-.1.7-.3.9-.5.2-.2.4-.5.5-.7.1-.3.2-.5.2-.7v-1.6ZM108.1,4v9.7h1.6v-4.3c0-.6,0-1.2.2-1.6.1-.5.3-.9.6-1.2.3-.3.6-.6,1.1-.8s1-.3,1.6-.3v-1.7c-.9,0-1.6.1-2.1.5s-1,1-1.4,1.7h0v-2h-1.5ZM115.4,10.6h-1.6c0,.6.1,1.1.4,1.5.2.4.5.7.9,1,.4.2.8.4,1.3.5.5.1,1,.2,1.5.2s1,0,1.5-.1c.5,0,.9-.2,1.3-.5.4-.2.7-.5,1-.9.2-.4.4-.9.4-1.5s0-.8-.3-1.2c-.2-.3-.4-.6-.7-.8-.3-.2-.6-.4-1-.5-.4-.1-.8-.2-1.2-.3-.4,0-.7-.2-1.1-.2-.4,0-.7-.2-1-.3-.3-.1-.5-.3-.7-.4-.2-.2-.3-.4-.3-.7s0-.4.2-.6c.1-.2.3-.3.5-.4.2,0,.4-.2.7-.2.2,0,.5,0,.7,0s.5,0,.8,0c.3,0,.5.1.7.3.2.1.4.3.5.5.1.2.2.5.2.8h1.6c0-.6-.2-1.1-.4-1.5-.2-.4-.5-.7-.9-.9-.3-.2-.8-.4-1.2-.5-.5,0-1-.1-1.5-.1s-.9,0-1.3.2c-.4,0-.8.3-1.2.5-.3.2-.6.5-.8.8-.2.3-.3.8-.3,1.3s.2,1.1.5,1.5c.3.3.7.6,1.2.8.5.2,1,.3,1.5.4.5,0,1.1.2,1.5.4.5.1.9.3,1.2.5.3.2.5.5.5.9s0,.5-.2.7c-.1.2-.3.3-.6.4-.2,0-.5.2-.7.2s-.5,0-.8,0-.6,0-1,0c-.3,0-.6-.2-.8-.3-.2-.1-.4-.3-.6-.6-.1-.2-.2-.5-.2-.9ZM124.2,11.6v2.1h2.1v-2.1h-2.1ZM135.6,7.1h1.6c0-.6-.2-1.1-.4-1.5-.2-.4-.5-.8-.9-1-.4-.3-.8-.5-1.3-.6-.5-.1-1-.2-1.5-.2s-1.4.1-2,.4c-.6.3-1.1.6-1.4,1.1-.4.5-.7,1-.8,1.6-.2.6-.3,1.3-.3,2s0,1.4.3,2c.2.6.5,1.1.9,1.6.4.4.9.8,1.4,1,.6.2,1.2.4,2,.4,1.2,0,2.2-.3,2.9-1,.7-.6,1.2-1.6,1.3-2.8h-1.6c0,.7-.4,1.3-.8,1.7-.4.4-1,.6-1.8.6s-.9,0-1.3-.3c-.4-.2-.7-.5-.9-.8-.2-.3-.4-.7-.5-1.1,0-.4-.1-.9-.1-1.3s0-1,.1-1.4c0-.5.3-.9.5-1.2.2-.3.5-.6.9-.8.4-.2.9-.3,1.4-.3s1.2.2,1.6.5c.4.3.7.8.8,1.4ZM140.2,8.9c0-.6,0-1.1.2-1.6.2-.5.4-.8.7-1.2.3-.3.6-.5,1-.7.4-.2.8-.2,1.2-.2s.8,0,1.2.2c.4.2.7.4,1,.7.3.3.5.7.6,1.2.2.4.2,1,.2,1.6s0,1.1-.2,1.6c-.1.4-.4.8-.6,1.1-.3.3-.6.5-1,.7-.4.2-.7.2-1.2.2s-.8,0-1.2-.2c-.4-.2-.7-.4-1-.7-.3-.3-.5-.7-.7-1.1-.1-.5-.2-1-.2-1.6ZM138.6,8.9c0,.7,0,1.4.3,2,.2.6.5,1.1.9,1.6.4.4.9.8,1.5,1.1.6.2,1.3.4,2,.4s1.4-.1,2-.4c.6-.3,1.1-.6,1.5-1.1.4-.5.7-1,.9-1.6.2-.6.3-1.3.3-2s0-1.4-.3-2c-.2-.6-.5-1.2-.9-1.6-.4-.5-.9-.8-1.5-1.1-.6-.3-1.2-.4-2-.4s-1.4.1-2,.4-1.1.6-1.5,1.1c-.4.4-.7,1-.9,1.6-.2.6-.3,1.3-.3,2ZM149.8,4v9.7h1.6v-6c0-.2,0-.4.1-.7,0-.3.2-.6.4-.8.2-.3.5-.5.8-.7.3-.2.7-.3,1.2-.3s.7,0,.9.2c.2,0,.4.2.6.4.1.2.2.4.3.7,0,.3,0,.5,0,.9v6.4h1.6v-6c0-.7.2-1.3.7-1.8.4-.4,1.1-.7,1.9-.7s.7,0,.9.2c.2.1.4.3.6.5.1.2.2.4.3.7,0,.3,0,.5,0,.8v6.4h1.6v-7.1c0-.5,0-.9-.2-1.3-.1-.4-.4-.7-.7-.9-.3-.2-.6-.4-1-.5-.4-.1-.8-.2-1.3-.2s-1.2.1-1.8.4c-.5.3-.9.7-1.3,1.2-.2-.6-.5-1-1-1.3-.5-.2-1-.4-1.6-.4-1.4,0-2.4.5-3.1,1.6h0v-1.4h-1.5Z"/>
</svg>