<?xml version="1.0" encoding="UTF-8"?>
<svg id="Layer_1" xmlns="http://www.w3.org/2000/svg" version="1.1" viewBox="0 0 117 25">
  <!-- Generator: Adobe Illustrator 29.5.1, SVG Export Plug-In . SVG Version: 2.1.0 Build 141)  -->
  <defs>
    <style>
      .st0 {
        fill-rule: evenodd;
      }
    </style>
  </defs>
  <path d="M58.6,23.5V0h5.4v14.5l5.5-6.5h6.9l-6.9,7.5,7.6,8h-7.2l-5.9-6.6v6.6h-5.4Z"/>
  <path d="M48.9,7.5c1.7,0,3.3.3,4.7,1,1.4.7,2.4,1.7,3.2,2.9.8,1.3,1.1,2.7,1.1,4.3s-.2,2.4-.7,3.4c-.4,1-1,1.9-1.9,2.6-.8.7-1.8,1.3-2.9,1.7-1.1.4-2.4.6-3.7.6s-3.3-.4-4.6-1.1c-1.4-.7-2.5-1.7-3.2-3-.8-1.3-1.2-2.7-1.2-4.3s.4-3,1.2-4.3c.8-1.3,1.9-2.3,3.3-3,1.4-.7,3-1.1,4.7-1.1ZM48.9,11.7c-.8,0-1.4.2-1.9.6-.5.4-.9.9-1.2,1.5-.3.6-.4,1.3-.4,2,0,1.1.3,2.1.9,2.8.6.8,1.4,1.2,2.5,1.2s2-.4,2.7-1.2c.7-.8,1-1.8,1-2.9s-.1-1.4-.4-2c-.3-.6-.7-1.1-1.2-1.5-.5-.4-1.2-.6-1.9-.6Z"/>
  <path d="M26.9,6.5V1.2h16v5.3h-4.9v17h-6.2V6.5h-4.9Z"/>
  <path d="M96.8,23.5l6.5-8.3-5.7-7.2h6.7l2.6,4.3,2.6-4.3h6.4l-5.7,7.3,6.2,8.2h-6.3l-3.5-5.2-3.4,5.2h-6.4Z"/>
  <path d="M91.3,23.5v-15.5h5.4v15.5s-5.4,0-5.4,0ZM93.9.6c.9,0,1.6.3,2.1.9.5.6.7,1.3.7,2.1s-.2,1.5-.7,2.1c-.5.6-1.2.9-2.1.9s-1.6-.3-2.2-.9c-.5-.6-.8-1.3-.8-2.1s.3-1.5.8-2.1c.5-.6,1.2-.9,2.2-.9Z"/>
  <path d="M74,6.5V1.2h16v5.3h-4.9v17h-6.2V6.5h-4.9Z"/>
  <path d="M16,0v2h6v6h2V2c0-1.1-.9-2-2-2h-6Z"/>
  <path d="M0,16h2v6h6v2H2c-1.1,0-2-.9-2-2v-6Z"/>
  <path d="M22,16h2v6c0,1.1-.9,2-2,2h-6v-2h6v-6Z"/>
  <path d="M0,2C0,.9.9,0,2,0h6v2H2v6H0V2Z"/>
  <path class="st0" d="M7.8,7.8c.8-.8.8-2,0-2.8l1.4-1.4,11.3,11.3-1.4,1.4c-.8-.8-2-.8-2.8,0-.8.8-.8,2,0,2.8l-1.4,1.4L3.5,9.2l1.4-1.4c.8.8,2,.8,2.8,0Z"/>
</svg>